<?xml version="1.0" encoding="UTF-8" standalone="no"?>
<!DOCTYPE svg PUBLIC "-//W3C//DTD SVG 1.1//EN" "http://www.w3.org/Graphics/SVG/1.1/DTD/svg11.dtd">
<svg xmlns="http://www.w3.org/2000/svg" version="1.1" viewBox="0 0 378 133" width="378.0pt" height="133.0pt" xmlns:xlink="http://www.w3.org/1999/xlink">
<defs>
<path d="M 0.00 0.00 L 357.23 0.00 C 357.02 1.44 356.84 2.89 356.70 4.35 C 355.17 4.38 353.65 4.41 352.12 4.48 C 351.91 22.03 352.22 39.59 351.97 57.13 C 351.45 39.59 351.90 22.00 351.74 4.44 C 350.17 4.42 348.59 4.40 347.02 4.39 C 284.05 4.31 221.08 4.42 158.12 4.34 C 106.94 4.38 55.55 4.24 4.41 4.41 C 4.23 45.74 4.40 87.24 4.32 128.60 C 4.30 130.07 4.31 131.53 4.32 133.00 L 0.00 133.00 L 0.00 0.00 Z" id="p0" />
<path d="M 357.23 0.00 L 378.00 0.00 L 378.00 133.00 L 356.56 133.00 C 356.57 131.48 356.58 129.95 356.58 128.43 C 356.57 112.81 356.59 97.19 356.57 81.58 C 363.22 74.87 369.92 68.21 376.60 61.53 C 371.74 56.74 366.98 51.84 362.10 47.07 C 360.59 48.45 359.17 49.92 357.66 51.31 L 357.21 51.11 C 356.32 48.96 356.60 46.31 356.54 44.00 C 356.71 30.79 356.38 17.56 356.70 4.35 C 356.84 2.89 357.02 1.44 357.23 0.00 Z" id="p1" />
<path d="M 4.41 4.41 C 55.55 4.24 106.94 4.38 158.12 4.34 C 158.18 44.28 158.18 84.23 158.12 124.18 C 108.41 124.07 58.71 124.15 9.00 124.14 C 9.02 125.58 9.04 127.02 9.06 128.47 C 7.48 128.49 5.90 128.52 4.32 128.60 C 4.40 87.24 4.23 45.74 4.41 4.41 Z M 14.91 30.77 C 21.94 53.66 28.48 76.72 35.51 99.61 C 40.39 85.46 44.14 70.88 48.72 56.63 C 53.20 70.91 57.15 85.36 61.75 99.60 C 68.37 79.61 73.63 59.13 80.13 39.09 C 85.00 39.09 89.86 39.10 94.73 39.03 C 91.34 45.17 87.69 51.16 84.21 57.24 C 83.05 59.15 82.90 61.19 82.51 63.34 C 86.38 63.60 90.96 63.17 94.13 65.83 C 96.68 67.86 97.82 70.80 98.27 73.95 C 98.89 78.65 98.12 83.50 95.38 87.44 C 93.61 90.08 90.04 91.41 87.05 90.09 C 83.22 88.71 81.75 85.57 79.82 82.29 C 77.56 83.23 75.30 84.16 73.04 85.12 C 75.12 89.91 77.42 94.22 82.14 96.88 C 88.68 100.70 97.34 98.93 102.17 93.20 C 108.61 85.80 109.09 73.76 104.87 65.19 C 102.67 60.61 98.81 58.08 94.31 56.09 C 97.94 49.79 101.68 43.57 105.31 37.28 C 106.56 35.26 106.73 33.09 107.03 30.80 C 95.91 30.72 84.79 30.78 73.67 30.76 C 69.54 44.56 65.47 58.38 61.45 72.21 C 57.13 58.46 53.28 44.56 49.12 30.77 C 46.18 30.76 43.25 30.76 40.31 30.76 C 41.49 34.93 43.06 39.02 43.98 43.25 C 44.39 44.85 43.59 46.73 43.20 48.29 C 40.67 56.29 38.48 64.38 36.04 72.40 C 31.94 58.52 27.92 44.61 23.78 30.75 C 20.83 30.76 17.87 30.76 14.91 30.77 Z M 114.61 70.34 C 113.59 62.27 114.22 54.32 118.15 47.07 C 120.49 43.34 124.10 39.66 128.91 40.28 C 133.39 41.01 136.23 45.01 138.57 48.51 C 140.08 45.30 141.70 42.14 143.42 39.03 C 142.97 36.15 142.49 33.26 142.04 30.38 C 140.41 33.68 138.77 36.97 137.11 40.25 C 134.49 36.26 131.34 31.72 126.04 31.56 C 121.39 31.30 117.94 35.17 115.87 38.89 C 110.60 48.75 110.85 60.01 114.61 70.34 Z M 108.76 78.80 C 110.95 85.29 113.81 91.35 119.38 95.63 C 123.82 99.19 130.66 99.47 135.36 96.26 C 139.05 93.76 141.62 90.35 143.85 86.55 C 143.47 84.29 143.12 82.04 142.80 79.78 C 140.08 84.19 137.24 88.13 132.52 90.57 C 128.01 93.05 122.33 92.65 118.07 89.83 C 113.69 87.04 111.43 83.06 108.76 78.80 Z" id="p2" />
<path d="M 158.12 4.34 C 221.08 4.42 284.05 4.31 347.02 4.39 C 346.89 23.59 346.85 42.83 347.04 62.04 C 337.60 71.39 328.26 80.83 318.83 90.19 C 312.58 84.59 306.38 78.91 300.20 73.23 C 295.70 78.40 290.90 83.29 286.39 88.44 C 297.39 98.54 308.40 108.62 319.43 118.68 C 328.54 109.51 337.71 100.39 346.85 91.24 C 347.02 102.24 346.89 113.24 346.94 124.24 C 284.01 124.22 221.05 124.35 158.12 124.18 C 158.18 84.23 158.18 44.28 158.12 4.34 Z M 196.34 78.89 C 196.39 76.78 196.44 74.67 196.50 72.57 C 192.40 74.77 188.13 76.09 183.54 74.46 C 176.66 71.37 176.50 59.54 182.60 55.62 C 187.28 53.05 192.10 54.70 196.46 57.04 C 196.43 54.93 196.42 52.81 196.42 50.70 C 190.52 48.18 182.67 47.57 177.04 51.07 C 167.47 56.59 167.55 73.36 177.38 78.60 C 183.43 81.96 190.08 81.12 196.34 78.89 Z M 203.11 72.06 C 203.15 74.30 203.18 76.54 203.22 78.78 C 209.09 80.57 216.64 82.02 222.48 79.57 C 227.21 77.58 228.21 71.73 226.93 67.27 C 225.97 64.35 223.49 63.14 220.75 62.29 C 217.49 61.21 213.56 61.09 210.62 59.35 C 209.47 57.16 210.23 55.48 212.47 54.60 C 217.00 53.48 221.24 54.91 225.45 56.45 C 225.43 54.29 225.42 52.13 225.42 49.97 C 220.18 48.76 213.76 47.71 208.56 49.43 C 202.74 51.44 200.93 59.57 205.01 63.98 C 208.44 67.53 214.75 67.19 218.72 69.32 C 220.75 70.90 219.92 73.79 217.65 74.64 C 212.43 75.94 207.78 74.21 203.11 72.06 Z M 234.52 72.12 C 234.54 74.36 234.56 76.61 234.57 78.85 C 240.56 80.46 247.58 82.00 253.57 79.69 C 259.38 77.55 260.83 68.63 256.51 64.47 C 252.67 61.23 246.28 61.64 242.38 59.54 C 240.42 57.84 241.91 54.90 244.19 54.51 C 248.81 53.55 252.72 54.98 257.00 56.48 C 257.00 54.31 257.00 52.14 257.00 49.98 C 251.62 48.81 244.89 47.64 239.61 49.59 C 234.09 51.54 232.87 59.53 236.18 63.79 C 239.76 67.63 246.24 67.12 250.53 69.47 C 251.58 71.20 251.49 73.52 249.47 74.47 C 244.32 76.16 239.22 74.14 234.52 72.12 Z" id="p3" />
<path d="M 352.12 4.48 C 353.65 4.41 355.17 4.38 356.70 4.35 C 356.38 17.56 356.71 30.79 356.54 44.00 C 356.60 46.31 356.32 48.96 357.21 51.11 L 357.66 51.31 C 355.81 53.29 353.89 55.21 351.97 57.13 C 352.22 39.59 351.91 22.03 352.12 4.48 Z" id="p4" />
<path d="M 347.02 4.39 C 348.59 4.40 350.17 4.42 351.74 4.44 C 351.90 22.00 351.45 39.59 351.97 57.13 C 350.34 58.77 348.69 60.41 347.04 62.04 C 346.85 42.83 346.89 23.59 347.02 4.39 Z" id="p5" />
<path d="M 14.91 30.77 C 17.87 30.76 20.83 30.76 23.78 30.75 C 27.92 44.61 31.94 58.52 36.04 72.40 C 38.48 64.38 40.67 56.29 43.20 48.29 C 43.59 46.73 44.39 44.85 43.98 43.25 C 43.06 39.02 41.49 34.93 40.31 30.76 C 43.25 30.76 46.18 30.76 49.12 30.77 C 53.28 44.56 57.13 58.46 61.45 72.21 C 65.47 58.38 69.54 44.56 73.67 30.76 C 84.79 30.78 95.91 30.72 107.03 30.80 C 106.73 33.09 106.56 35.26 105.31 37.28 C 101.68 43.57 97.94 49.79 94.31 56.09 C 98.81 58.08 102.67 60.61 104.87 65.19 C 109.09 73.76 108.61 85.80 102.17 93.20 C 97.34 98.93 88.68 100.70 82.14 96.88 C 77.42 94.22 75.12 89.91 73.04 85.12 C 75.30 84.16 77.56 83.23 79.82 82.29 C 81.75 85.57 83.22 88.71 87.05 90.09 C 90.04 91.41 93.61 90.08 95.38 87.44 C 98.12 83.50 98.89 78.65 98.27 73.95 C 97.82 70.80 96.68 67.86 94.13 65.83 C 90.96 63.17 86.38 63.60 82.51 63.34 C 82.90 61.19 83.05 59.15 84.21 57.24 C 87.69 51.16 91.34 45.17 94.73 39.03 C 89.86 39.10 85.00 39.09 80.13 39.09 C 73.63 59.13 68.37 79.61 61.75 99.60 C 57.15 85.36 53.20 70.91 48.72 56.63 C 44.14 70.88 40.39 85.46 35.51 99.61 C 28.48 76.72 21.94 53.66 14.91 30.77 Z" id="p6" />
<path d="M 126.04 31.56 C 131.34 31.72 134.49 36.26 137.11 40.25 C 138.77 36.97 140.41 33.68 142.04 30.38 C 142.49 33.26 142.97 36.15 143.42 39.03 C 141.70 42.14 140.08 45.30 138.57 48.51 C 136.23 45.01 133.39 41.01 128.91 40.28 C 124.10 39.66 120.49 43.34 118.15 47.07 C 114.22 54.32 113.59 62.27 114.61 70.34 C 110.85 60.01 110.60 48.75 115.87 38.89 C 117.94 35.17 121.39 31.30 126.04 31.56 Z" id="p7" />
<path d="M 362.10 47.07 C 366.98 51.84 371.74 56.74 376.60 61.53 C 369.92 68.21 363.22 74.87 356.57 81.58 C 355.09 83.08 353.59 84.56 352.08 86.04 C 351.68 86.43 351.28 86.83 350.89 87.22 C 349.54 88.56 348.19 89.90 346.85 91.24 C 337.71 100.39 328.54 109.51 319.43 118.68 C 308.40 108.62 297.39 98.54 286.39 88.44 C 290.90 83.29 295.70 78.40 300.20 73.23 C 306.38 78.91 312.58 84.59 318.83 90.19 C 328.26 80.83 337.60 71.39 347.04 62.04 C 348.69 60.41 350.34 58.77 351.97 57.13 C 353.89 55.21 355.81 53.29 357.66 51.31 C 359.17 49.92 360.59 48.45 362.10 47.07 Z" id="p8" />
<path d="M 196.42 50.70 C 196.42 52.81 196.43 54.93 196.46 57.04 C 192.10 54.70 187.28 53.05 182.60 55.62 C 176.50 59.54 176.66 71.37 183.54 74.46 C 188.13 76.09 192.40 74.77 196.50 72.57 C 196.44 74.67 196.39 76.78 196.34 78.89 C 190.08 81.12 183.43 81.96 177.38 78.60 C 167.55 73.36 167.47 56.59 177.04 51.07 C 182.67 47.57 190.52 48.18 196.42 50.70 Z" id="p9" />
<path d="M 225.42 49.97 C 225.42 52.13 225.43 54.29 225.45 56.45 C 221.24 54.91 217.00 53.48 212.47 54.60 C 210.23 55.48 209.47 57.16 210.62 59.35 C 213.56 61.09 217.49 61.21 220.75 62.29 C 223.49 63.14 225.97 64.35 226.93 67.27 C 228.21 71.73 227.21 77.58 222.48 79.57 C 216.64 82.02 209.09 80.57 203.22 78.78 C 203.18 76.54 203.15 74.30 203.11 72.06 C 207.78 74.21 212.43 75.94 217.65 74.64 C 219.92 73.79 220.75 70.90 218.72 69.32 C 214.75 67.19 208.44 67.53 205.01 63.98 C 200.93 59.57 202.74 51.44 208.56 49.43 C 213.76 47.71 220.18 48.76 225.42 49.97 Z" id="p10" />
<path d="M 257.00 49.98 C 257.00 52.14 257.00 54.31 257.00 56.48 C 252.72 54.98 248.81 53.55 244.19 54.51 C 241.91 54.90 240.42 57.84 242.38 59.54 C 246.28 61.64 252.67 61.23 256.51 64.47 C 260.83 68.63 259.38 77.55 253.57 79.69 C 247.58 82.00 240.56 80.46 234.57 78.85 C 234.56 76.61 234.54 74.36 234.52 72.12 C 239.22 74.14 244.32 76.16 249.47 74.47 C 251.49 73.52 251.58 71.20 250.53 69.47 C 246.24 67.12 239.76 67.63 236.18 63.79 C 232.87 59.53 234.09 51.54 239.61 49.59 C 244.89 47.64 251.62 48.81 257.00 49.98 Z" id="p11" />
<path d="M 108.76 78.80 C 111.43 83.06 113.69 87.04 118.07 89.83 C 122.33 92.65 128.01 93.05 132.52 90.57 C 137.24 88.13 140.08 84.19 142.80 79.78 C 143.12 82.04 143.47 84.29 143.85 86.55 C 141.62 90.35 139.05 93.76 135.36 96.26 C 130.66 99.47 123.82 99.19 119.38 95.63 C 113.81 91.35 110.95 85.29 108.76 78.80 Z" id="p12" />
<path d="M 356.57 81.58 C 356.59 97.19 356.57 112.81 356.58 128.43 C 355.08 128.44 353.57 128.44 352.06 128.43 C 351.97 127.26 351.87 126.10 351.78 124.93 C 352.41 111.99 351.91 98.99 352.08 86.04 C 353.59 84.56 355.09 83.08 356.57 81.58 Z" id="p13" />
<path d="M 352.08 86.04 C 351.91 98.99 352.41 111.99 351.78 124.93 C 351.35 121.96 350.96 119.01 350.96 116.00 C 350.98 106.41 351.10 96.81 350.89 87.22 C 351.28 86.83 351.68 86.43 352.08 86.04 Z" id="p14" />
<path d="M 350.89 87.22 C 351.10 96.81 350.98 106.41 350.96 116.00 C 350.96 119.01 351.35 121.96 351.78 124.93 C 351.87 126.10 351.97 127.26 352.06 128.43 C 350.22 128.03 348.50 127.77 346.62 128.14 C 341.49 128.88 336.34 128.45 331.00 128.52 C 273.33 128.59 215.64 128.42 157.98 128.61 L 157.98 128.36 C 158.02 126.97 158.07 125.57 158.12 124.18 C 221.05 124.35 284.01 124.22 346.94 124.24 C 346.89 113.24 347.02 102.24 346.85 91.24 C 348.19 89.90 349.54 88.56 350.89 87.22 Z" id="p15" />
<path d="M 9.00 124.14 C 58.71 124.15 108.41 124.07 158.12 124.18 C 158.07 125.57 158.02 126.97 157.98 128.36 C 108.35 128.57 58.70 128.35 9.06 128.47 C 9.04 127.02 9.02 125.58 9.00 124.14 Z" id="p16" />
<path d="M 4.32 128.60 C 5.90 128.52 7.48 128.49 9.06 128.47 C 58.70 128.35 108.35 128.57 157.98 128.36 L 157.98 128.61 C 157.95 130.07 157.91 131.54 157.89 133.00 L 4.32 133.00 C 4.31 131.53 4.30 130.07 4.32 128.60 Z" id="p17" />
<path d="M 352.06 128.43 C 352.06 129.95 352.05 131.48 352.05 133.00 L 347.76 133.00 C 347.34 131.39 346.96 129.77 346.62 128.14 C 348.50 127.77 350.22 128.03 352.06 128.43 Z" id="p18" />
<path d="M 157.98 128.61 C 215.64 128.42 273.33 128.59 331.00 128.52 C 336.34 128.45 341.49 128.88 346.62 128.14 C 346.96 129.77 347.34 131.39 347.76 133.00 L 157.89 133.00 C 157.91 131.54 157.95 130.07 157.98 128.61 Z" id="p19" />
<path d="M 352.06 128.43 C 353.57 128.44 355.08 128.44 356.58 128.43 C 356.58 129.95 356.57 131.48 356.56 133.00 L 352.05 133.00 C 352.05 131.48 352.06 129.95 352.06 128.43 Z" id="p20" />
</defs>
<g stroke-width="10pt">
<use stroke="#cccccc" xlink:href="#p0" />
<use stroke="#ffffff" xlink:href="#p1" />
<use stroke="#ffffff" xlink:href="#p2" />
<use stroke="#ffcc66" xlink:href="#p3" />
<use stroke="#4d4a3e" xlink:href="#p4" />
<use stroke="#b39f67" xlink:href="#p5" />
<use stroke="#005a9c" xlink:href="#p6" />
<use stroke="#000000" xlink:href="#p7" />
<use stroke="#990000" xlink:href="#p8" />
<use stroke="#000000" xlink:href="#p9" />
<use stroke="#000000" xlink:href="#p10" />
<use stroke="#000000" xlink:href="#p11" />
<use stroke="#000000" xlink:href="#p12" />
<use stroke="#4e4b3f" xlink:href="#p13" />
<use stroke="#e1ba6c" xlink:href="#p14" />
<use stroke="#b39f67" xlink:href="#p15" />
<use stroke="#b5b5b5" xlink:href="#p16" />
<use stroke="#4f4f4f" xlink:href="#p17" />
<use stroke="#37342f" xlink:href="#p18" />
<use stroke="#4e4b3f" xlink:href="#p19" />
<use stroke="#191917" xlink:href="#p20" />
</g>
<g>
<use fill="#cccccc" xlink:href="#p0" />
<use fill="#ffffff" xlink:href="#p1" />
<use fill="#ffffff" xlink:href="#p2" />
<use fill="#ffcc66" xlink:href="#p3" />
<use fill="#4d4a3e" xlink:href="#p4" />
<use fill="#b39f67" xlink:href="#p5" />
<use fill="#005a9c" xlink:href="#p6" />
<use fill="#000000" xlink:href="#p7" />
<use fill="#990000" xlink:href="#p8" />
<use fill="#000000" xlink:href="#p9" />
<use fill="#000000" xlink:href="#p10" />
<use fill="#000000" xlink:href="#p11" />
<use fill="#000000" xlink:href="#p12" />
<use fill="#4e4b3f" xlink:href="#p13" />
<use fill="#e1ba6c" xlink:href="#p14" />
<use fill="#b39f67" xlink:href="#p15" />
<use fill="#b5b5b5" xlink:href="#p16" />
<use fill="#4f4f4f" xlink:href="#p17" />
<use fill="#37342f" xlink:href="#p18" />
<use fill="#4e4b3f" xlink:href="#p19" />
<use fill="#191917" xlink:href="#p20" />
</g>
</svg>