<svg xmlns="http://www.w3.org/2000/svg" viewBox="0 0 378 133" width="504" height="133pt" xmlns:xlink="http://www.w3.org/1999/xlink"><defs><path d="M0 0h357.23c-.21 1.44-.39 2.89-.53 4.35-1.53.03-3.05.06-4.58.13-.21 17.55.1 35.11-.15 52.65-.52-17.54-.07-35.13-.23-52.69-1.57-.02-3.15-.04-4.72-.05-62.97-.08-125.94.03-188.9-.05-51.18.04-102.57-.1-153.71.07-.18 41.33-.01 82.83-.09 124.19-.02 1.47-.01 2.93 0 4.4H0V0z" id="a"/><path d="M357.23 0H378v133h-21.44c.01-1.52.02-3.05.02-4.57-.01-15.62.01-31.24-.01-46.85 6.65-6.71 13.35-13.37 20.03-20.05-4.86-4.79-9.62-9.69-14.5-14.46-1.51 1.38-2.93 2.85-4.44 4.24l-.45-.2c-.89-2.15-.61-4.8-.67-7.11.17-13.21-.16-26.44.16-39.65.14-1.46.32-2.91.53-4.35z" id="b"/><path d="M4.41 4.41c51.14-.17 102.53-.03 153.71-.07.06 39.94.06 79.89 0 119.84-49.71-.11-99.41-.03-149.12-.04l.06 4.33c-1.58.02-3.16.05-4.74.13.08-41.36-.09-82.86.09-124.19zm10.5 26.36c7.03 22.89 13.57 45.95 20.6 68.84 4.88-14.15 8.63-28.73 13.21-42.98 4.48 14.28 8.43 28.73 13.03 42.97 6.62-19.99 11.88-40.47 18.38-60.51 4.87 0 9.73.01 14.6-.06-3.39 6.14-7.04 12.13-10.52 18.21-1.16 1.91-1.31 3.95-1.7 6.1 3.87.26 8.45-.17 11.62 2.49 2.55 2.03 3.69 4.97 4.14 8.12.62 4.7-.15 9.55-2.89 13.49-1.77 2.64-5.34 3.97-8.33 2.65-3.83-1.38-5.3-4.52-7.23-7.8-2.26.94-4.52 1.87-6.78 2.83 2.08 4.79 4.38 9.1 9.1 11.76 6.54 3.82 15.2 2.05 20.03-3.68 6.44-7.4 6.92-19.44 2.7-28.01-2.2-4.58-6.06-7.11-10.56-9.1 3.63-6.3 7.37-12.52 11-18.81 1.25-2.02 1.42-4.19 1.72-6.48-11.12-.08-22.24-.02-33.36-.04-4.13 13.8-8.2 27.62-12.22 41.45-4.32-13.75-8.17-27.65-12.33-41.44-2.94-.01-5.87-.01-8.81-.01 1.18 4.17 2.75 8.26 3.67 12.49.41 1.6-.39 3.48-.78 5.04-2.53 8-4.72 16.09-7.16 24.11-4.1-13.88-8.12-27.79-12.26-41.65-2.95.01-5.91.01-8.87.02zm99.7 39.57c-1.02-8.07-.39-16.02 3.54-23.27 2.34-3.73 5.95-7.41 10.76-6.79 4.48.73 7.32 4.73 9.66 8.23 1.51-3.21 3.13-6.37 4.85-9.48-.45-2.88-.93-5.77-1.38-8.65-1.63 3.3-3.27 6.59-4.93 9.87-2.62-3.99-5.77-8.53-11.07-8.69-4.65-.26-8.1 3.61-10.17 7.33-5.27 9.86-5.02 21.12-1.26 31.45zm-5.85 8.46c2.19 6.49 5.05 12.55 10.62 16.83 4.44 3.56 11.28 3.84 15.98.63 3.69-2.5 6.26-5.91 8.49-9.71-.38-2.26-.73-4.51-1.05-6.77-2.72 4.41-5.56 8.35-10.28 10.79-4.51 2.48-10.19 2.08-14.45-.74-4.38-2.79-6.64-6.77-9.31-11.03z" id="c"/><path d="M158.12 4.34c62.96.08 125.93-.03 188.9.05-.13 19.2-.17 38.44.02 57.65-9.44 9.35-18.78 18.79-28.21 28.15-6.25-5.6-12.45-11.28-18.63-16.96-4.5 5.17-9.3 10.06-13.81 15.21 11 10.1 22.01 20.18 33.04 30.24 9.11-9.17 18.28-18.29 27.42-27.44.17 11 .04 22 .09 33-62.93-.02-125.89.11-188.82-.06.06-39.95.06-79.9 0-119.84zm38.22 74.55c.05-2.11.1-4.22.16-6.32-4.1 2.2-8.37 3.52-12.96 1.89-6.88-3.09-7.04-14.92-.94-18.84 4.68-2.57 9.5-.92 13.86 1.42-.03-2.11-.04-4.23-.04-6.34-5.9-2.52-13.75-3.13-19.38.37-9.57 5.52-9.49 22.29.34 27.53 6.05 3.36 12.7 2.52 18.96.29zm6.77-6.83c.04 2.24.07 4.48.11 6.72 5.87 1.79 13.42 3.24 19.26.79 4.73-1.99 5.73-7.84 4.45-12.3-.96-2.92-3.44-4.13-6.18-4.98-3.26-1.08-7.19-1.2-10.13-2.94-1.15-2.19-.39-3.87 1.85-4.75 4.53-1.12 8.77.31 12.98 1.85-.02-2.16-.03-4.32-.03-6.48-5.24-1.21-11.66-2.26-16.86-.54-5.82 2.01-7.63 10.14-3.55 14.55 3.43 3.55 9.74 3.21 13.71 5.34 2.03 1.58 1.2 4.47-1.07 5.32-5.22 1.3-9.87-.43-14.54-2.58zm31.41.06c.02 2.24.04 4.49.05 6.73 5.99 1.61 13.01 3.15 19 .84 5.81-2.14 7.26-11.06 2.94-15.22-3.84-3.24-10.23-2.83-14.13-4.93-1.96-1.7-.47-4.64 1.81-5.03 4.62-.96 8.53.47 12.81 1.97v-6.5c-5.38-1.17-12.11-2.34-17.39-.39-5.52 1.95-6.74 9.94-3.43 14.2 3.58 3.84 10.06 3.33 14.35 5.68 1.05 1.73.96 4.05-1.06 5-5.15 1.69-10.25-.33-14.95-2.35z" id="d"/><path d="M352.12 4.48c1.53-.07 3.05-.1 4.58-.13-.32 13.21.01 26.44-.16 39.65.06 2.31-.22 4.96.67 7.11l.45.2c-1.85 1.98-3.77 3.9-5.69 5.82.25-17.54-.06-35.1.15-52.65z" id="e"/><path d="M347.02 4.39c1.57.01 3.15.03 4.72.05.16 17.56-.29 35.15.23 52.69-1.63 1.64-3.28 3.28-4.93 4.91-.19-19.21-.15-38.45-.02-57.65z" id="f"/><path d="M14.91 30.77c2.96-.01 5.92-.01 8.87-.02 4.14 13.86 8.16 27.77 12.26 41.65 2.44-8.02 4.63-16.11 7.16-24.11.39-1.56 1.19-3.44.78-5.04-.92-4.23-2.49-8.32-3.67-12.49 2.94 0 5.87 0 8.81.01 4.16 13.79 8.01 27.69 12.33 41.44 4.02-13.83 8.09-27.65 12.22-41.45 11.12.02 22.24-.04 33.36.04-.3 2.29-.47 4.46-1.72 6.48-3.63 6.29-7.37 12.51-11 18.81 4.5 1.99 8.36 4.52 10.56 9.1 4.22 8.57 3.74 20.61-2.7 28.01-4.83 5.73-13.49 7.5-20.03 3.68-4.72-2.66-7.02-6.97-9.1-11.76 2.26-.96 4.52-1.89 6.78-2.83 1.93 3.28 3.4 6.42 7.23 7.8 2.99 1.32 6.56-.01 8.33-2.65 2.74-3.94 3.51-8.79 2.89-13.49-.45-3.15-1.59-6.09-4.14-8.12-3.17-2.66-7.75-2.23-11.62-2.49.39-2.15.54-4.19 1.7-6.1 3.48-6.08 7.13-12.07 10.52-18.21-4.87.07-9.73.06-14.6.06-6.5 20.04-11.76 40.52-18.38 60.51-4.6-14.24-8.55-28.69-13.03-42.97-4.58 14.25-8.33 28.83-13.21 42.98-7.03-22.89-13.57-45.95-20.6-68.84z" id="g"/><path d="M126.04 31.56c5.3.16 8.45 4.7 11.07 8.69 1.66-3.28 3.3-6.57 4.93-9.87.45 2.88.93 5.77 1.38 8.65-1.72 3.11-3.34 6.27-4.85 9.48-2.34-3.5-5.18-7.5-9.66-8.23-4.81-.62-8.42 3.06-10.76 6.79-3.93 7.25-4.56 15.2-3.54 23.27-3.76-10.33-4.01-21.59 1.26-31.45 2.07-3.72 5.52-7.59 10.17-7.33z" id="h"/><path d="M362.1 47.07c4.88 4.77 9.64 9.67 14.5 14.46-6.68 6.68-13.38 13.34-20.03 20.05-1.48 1.5-2.98 2.98-4.49 4.46-.4.39-.8.79-1.19 1.18-1.35 1.34-2.7 2.68-4.04 4.02-9.14 9.15-18.31 18.27-27.42 27.44a13438.06 13438.06 0 01-33.04-30.24c4.51-5.15 9.31-10.04 13.81-15.21 6.18 5.68 12.38 11.36 18.63 16.96 9.43-9.36 18.77-18.8 28.21-28.15 1.65-1.63 3.3-3.27 4.93-4.91 1.92-1.92 3.84-3.84 5.69-5.82 1.51-1.39 2.93-2.86 4.44-4.24z" id="i"/><path d="M196.42 50.7c0 2.11.01 4.23.04 6.34-4.36-2.34-9.18-3.99-13.86-1.42-6.1 3.92-5.94 15.75.94 18.84 4.59 1.63 8.86.31 12.96-1.89-.06 2.1-.11 4.21-.16 6.32-6.26 2.23-12.91 3.07-18.96-.29-9.83-5.24-9.91-22.01-.34-27.53 5.63-3.5 13.48-2.89 19.38-.37z" id="j"/><path d="M225.42 49.97c0 2.16.01 4.32.03 6.48-4.21-1.54-8.45-2.97-12.98-1.85-2.24.88-3 2.56-1.85 4.75 2.94 1.74 6.87 1.86 10.13 2.94 2.74.85 5.22 2.06 6.18 4.98 1.28 4.46.28 10.31-4.45 12.3-5.84 2.45-13.39 1-19.26-.79-.04-2.24-.07-4.48-.11-6.72 4.67 2.15 9.32 3.88 14.54 2.58 2.27-.85 3.1-3.74 1.07-5.32-3.97-2.13-10.28-1.79-13.71-5.34-4.08-4.41-2.27-12.54 3.55-14.55 5.2-1.72 11.62-.67 16.86.54z" id="k"/><path d="M257 49.98v6.5c-4.28-1.5-8.19-2.93-12.81-1.97-2.28.39-3.77 3.33-1.81 5.03 3.9 2.1 10.29 1.69 14.13 4.93 4.32 4.16 2.87 13.08-2.94 15.22-5.99 2.31-13.01.77-19-.84-.01-2.24-.03-4.49-.05-6.73 4.7 2.02 9.8 4.04 14.95 2.35 2.02-.95 2.11-3.27 1.06-5-4.29-2.35-10.77-1.84-14.35-5.68-3.31-4.26-2.09-12.25 3.43-14.2 5.28-1.95 12.01-.78 17.39.39z" id="l"/><path d="M108.76 78.8c2.67 4.26 4.93 8.24 9.31 11.03 4.26 2.82 9.94 3.22 14.45.74 4.72-2.44 7.56-6.38 10.28-10.79.32 2.26.67 4.51 1.05 6.77-2.23 3.8-4.8 7.21-8.49 9.71-4.7 3.21-11.54 2.93-15.98-.63-5.57-4.28-8.43-10.34-10.62-16.83z" id="m"/><path d="M356.57 81.58c.02 15.61 0 31.23.01 46.85-1.5.01-3.01.01-4.52 0-.09-1.17-.19-2.33-.28-3.5.63-12.94.13-25.94.3-38.89 1.51-1.48 3.01-2.96 4.49-4.46z" id="n"/><path d="M352.08 86.04c-.17 12.95.33 25.95-.3 38.89-.43-2.97-.82-5.92-.82-8.93.02-9.59.14-19.19-.07-28.78.39-.39.79-.79 1.19-1.18z" id="o"/><path d="M350.89 87.22c.21 9.59.09 19.19.07 28.78 0 3.01.39 5.96.82 8.93.09 1.17.19 2.33.28 3.5-1.84-.4-3.56-.66-5.44-.29-5.13.74-10.28.31-15.62.38-57.67.07-115.36-.1-173.02.09v-.25c.04-1.39.09-2.79.14-4.18 62.93.17 125.89.04 188.82.06-.05-11 .08-22-.09-33 1.34-1.34 2.69-2.68 4.04-4.02z" id="p"/><path d="M9 124.14c49.71.01 99.41-.07 149.12.04-.05 1.39-.1 2.79-.14 4.18-49.63.21-99.28-.01-148.92.11L9 124.14z" id="q"/><path d="M4.32 128.6c1.58-.08 3.16-.11 4.74-.13 49.64-.12 99.29.1 148.92-.11v.25c-.03 1.46-.07 2.93-.09 4.39H4.32c-.01-1.47-.02-2.93 0-4.4z" id="r"/><path d="M352.06 128.43c0 1.52-.01 3.05-.01 4.57h-4.29c-.42-1.61-.8-3.23-1.14-4.86 1.88-.37 3.6-.11 5.44.29z" id="s"/><path d="M157.98 128.61c57.66-.19 115.35-.02 173.02-.09 5.34-.07 10.49.36 15.62-.38.34 1.63.72 3.25 1.14 4.86H157.89c.02-1.46.06-2.93.09-4.39z" id="t"/><path d="M352.06 128.43c1.51.01 3.02.01 4.52 0 0 1.52-.01 3.05-.02 4.57h-4.51c0-1.52.01-3.05.01-4.57z" id="u"/></defs><g stroke-width="10pt"><use stroke="#ccc" xlink:href="#a"/><use stroke="#fff" xlink:href="#b"/><use stroke="#fff" xlink:href="#c"/><use stroke="#fc6" xlink:href="#d"/><use stroke="#4d4a3e" xlink:href="#e"/><use stroke="#b39f67" xlink:href="#f"/><use stroke="#005a9c" xlink:href="#g"/><use stroke="#000" xlink:href="#h"/><use stroke="#900" xlink:href="#i"/><use stroke="#000" xlink:href="#j"/><use stroke="#000" xlink:href="#k"/><use stroke="#000" xlink:href="#l"/><use stroke="#000" xlink:href="#m"/><use stroke="#4e4b3f" xlink:href="#n"/><use stroke="#e1ba6c" xlink:href="#o"/><use stroke="#b39f67" xlink:href="#p"/><use stroke="#b5b5b5" xlink:href="#q"/><use stroke="#4f4f4f" xlink:href="#r"/><use stroke="#37342f" xlink:href="#s"/><use stroke="#4e4b3f" xlink:href="#t"/><use stroke="#191917" xlink:href="#u"/></g><use fill="#ccc" xlink:href="#a"/><use fill="#fff" xlink:href="#b"/><use fill="#fff" xlink:href="#c"/><use fill="#fc6" xlink:href="#d"/><use fill="#4d4a3e" xlink:href="#e"/><use fill="#b39f67" xlink:href="#f"/><use fill="#005a9c" xlink:href="#g"/><use xlink:href="#h"/><use fill="#900" xlink:href="#i"/><use xlink:href="#j"/><use xlink:href="#k"/><use xlink:href="#l"/><use xlink:href="#m"/><use fill="#4e4b3f" xlink:href="#n"/><use fill="#e1ba6c" xlink:href="#o"/><use fill="#b39f67" xlink:href="#p"/><use fill="#b5b5b5" xlink:href="#q"/><use fill="#4f4f4f" xlink:href="#r"/><use fill="#37342f" xlink:href="#s"/><use fill="#4e4b3f" xlink:href="#t"/><use fill="#191917" xlink:href="#u"/></svg>