<svg xmlns="http://www.w3.org/2000/svg" viewBox="0 0 378 133" width="504" height="133pt" xmlns:xlink="http://www.w3.org/1999/xlink"><defs><path d="M0 0h355.96c.1 1.43.19 2.86.27 4.29-1.3.02-2.59.05-3.89.08-1.76.01-3.52-.01-5.29-.02-62.96-.08-125.94-.01-188.91-.04-51.19.03-102.57-.08-153.74.05-.2 41.37.03 82.87-.11 124.25.02 1.47.06 2.93.11 4.39H0V0z" id="a"/><path d="M355.96 0H378v133h-21.54l-.06-4.57c-.12-14.48.02-28.97-.08-43.45.12-1.74-.25-3.25 1.22-4.51 4.09-4.17 8.35-8.18 12.35-12.46 2.16-2.23 4.29-4.47 6.73-6.41-5.01-4.61-9.71-9.57-14.55-14.36a514.15 514.15 0 01-5.69 5.75c-.18-16.23.13-32.47-.15-48.7-.08-1.43-.17-2.86-.27-4.29z" id="b"/><path d="M4.4 4.36c51.17-.13 102.55-.02 153.74-.05.1 39.96-.04 79.92.07 119.88-49.69-.02-99.39-.03-149.09 0l-.42 3.45c5.44.3 10.86.1 16.3.15h120c4.27.02 8.53.03 12.79-.13l-.1.86c-4.24-.21-8.45-.13-12.69-.13-42.33-.01-84.67.01-127-.01-4.57-.05-9.14.09-13.71.23.14-41.38-.09-82.88.11-124.25zm69.3 26.13c-3.82 12.66-7.52 25.37-11.22 38.06-.38.98-.82 1.93-1.32 2.86-4.04-13.6-8.01-27.24-12.04-40.84-2.96-.01-5.91-.02-8.87-.02 1.33 4.52 2.66 9.03 4.09 13.52-2.87 9.3-5.31 18.77-8.43 27.98-3.82-13.83-8.23-27.51-11.98-41.36-3.01-.14-6.02-.19-9.03-.11l17.94 60.45c.88 2.75 1.35 5.96 3.05 8.27 3.31-10.81 6.47-21.67 9.75-32.49.99-3.32 1.8-6.64 3.22-9.82 4.13 14.1 8.42 28.16 12.59 42.25 1.65-1.48 1.85-4.18 2.55-6.23 4.69-16 9.49-31.97 14.2-47.97.59-1.99 1.28-3.95 1.99-5.9 4.84-.06 9.67.06 14.51-.22-3.56 6.33-7.28 12.57-10.91 18.86-1.15 1.79-.99 3.64-1.13 5.67 3.88.15 7.55-.36 10.92 1.95 3.53 2.47 4.57 6.51 4.8 10.6.2 4.46-1.02 9.79-4.42 12.93-2.76 2.47-6.8 1.79-9.5-.38-2.18-1.74-3.22-3.99-4.48-6.39-2.3.96-4.6 1.92-6.91 2.85 1.56 3.91 3.4 7.52 6.7 10.24 4.33 3.87 10.76 4.52 16.1 2.63 6.36-2.57 10.25-9.12 11.39-15.65 1.13-7.1.13-15.16-4.75-20.75-2.2-2.65-5.1-4.01-8.17-5.37 3.89-6.41 7.56-12.96 11.39-19.4 1.28-1.93 1.03-3.92 1.2-6.12-11.08.05-22.17-.18-33.23-.1zm63.4 9.73c-1.82-2.97-3.53-5.74-6.66-7.49-2.72-1.66-6.15-1.87-8.9-.16-4.26 2.61-6.65 7.31-8.11 11.92-2.36 8.11-2.18 16.89.93 24.77.11-5.66-.41-10.99 1.53-16.46 1.28-4.95 4.88-11.21 10.27-12.36 5.68-1.14 9.75 3.73 12.22 8.14 1.65-3.21 3.73-6.33 4.99-9.7-.18-2.93-.85-5.83-1.23-8.74l-.2.37c-1.68 3.2-3.28 6.45-4.84 9.71zm5.84 39.72c-3.73 4.72-6.39 9.28-12.41 11.45-5.17 2.01-10.61.27-14.59-3.3-3.11-2.55-4.75-5.85-6.86-9.16 1.23 5.8 4.77 11.85 9.14 15.84 4.46 4.1 11.23 5.12 16.51 1.97 3.4-2.14 6.27-5.26 8.33-8.7 1.56-2.1.04-5.67-.12-8.1z" id="c"/><path d="M158.14 4.31c62.97.03 125.95-.04 188.91.04.09 18.63-.07 37.28.05 55.91 1.32-.71 2.65-1.41 3.95-2.18-10.76 10.67-21.51 21.47-32.2 32.22-6.23-5.63-12.4-11.34-18.63-16.98-4.61 5.02-9.15 10.12-13.86 15.05 10.92 10.16 22.04 20.13 33 30.25 9.18-8.94 18.16-18.1 27.27-27.13.3 2.5.46 4.99.39 7.51-.21 8.37.02 16.75-.05 25.11-6.33.21-12.64.06-18.97.1-56.6-.02-113.19.02-169.79-.02-.11-39.96.03-79.92-.07-119.88zm35.43 3.85c-.05 5.09-.01 10.18-.05 15.26 1.73.01 3.46.01 5.19.02l-.06-5.17 4.7.03-.06 5.13c1.71 0 3.43 0 5.14-.01-.02-5.08 0-10.16-.04-15.25-1.69.02-3.38.04-5.08.05v4.95h-4.61c-.01-1.66-.01-3.31-.02-4.97-1.7-.01-3.41-.02-5.11-.04zm17 5.16c1.42-.04 2.84-.07 4.27-.1-.01 3.39-.02 6.79-.04 10.19h5.41c-.01-3.39-.02-6.78-.04-10.17 1.45.01 2.89.01 4.34.02-.02-1.7-.03-3.4-.05-5.1-4.64.18-9.29-.08-13.92.11-.09 1.7-.03 3.35.03 5.05zm16.11-5.13c-.02 5.08-.02 10.16-.04 15.24h5.05c-.02-2.44-.04-4.89-.03-7.33 1.17 1.71 2.28 3.45 3.4 5.19 1.17-1.74 2.32-3.49 3.51-5.21.02 2.45-.01 4.89-.03 7.34 1.73.01 3.45.01 5.18.02-.02-5.09-.01-10.18-.02-15.27-1.79.02-3.58.05-5.37.07-1.08 1.69-2.15 3.38-3.24 5.05-1.04-1.7-2.06-3.4-3.09-5.1-1.77.01-3.55.01-5.32 0zm19.48 15.22c4.07.01 8.14.01 12.21.02.01-1.72.02-3.44.02-5.17-2.37.02-4.75.04-7.13.05.02-3.38.03-6.76.01-10.14-1.66.02-3.35 0-5.01.12-.22 5.03.03 10.08-.1 15.12zm-59.73 6.67l.01.87c1.76 23.9 4.23 47.97 6.24 71.87.31 2.71.16 5.84 1.12 8.38 10.61 3.29 21.52 5.88 32.15 9.17 10.69-3.35 21.58-6.05 32.34-9.16 2.51-27 5-54.06 7.21-81.09-26.35.13-52.72.19-79.07-.04z" id="d"/><path d="M347.05 4.35c1.77.01 3.53.03 5.29.02.18 17.51.13 35.04.04 52.56l-1.33 1.15c-1.3.77-2.63 1.47-3.95 2.18-.12-18.63.04-37.28-.05-55.91z" id="e"/><path d="M352.34 4.37c1.3-.03 2.59-.06 3.89-.08.28 16.23-.03 32.47.15 48.7-1.31 1.32-2.62 2.68-4 3.94.09-17.52.14-35.05-.04-52.56z" id="f"/><path d="M193.57 8.16c1.7.02 3.41.03 5.11.04.01 1.66.01 3.31.02 4.97h4.61V8.22c1.7-.01 3.39-.03 5.08-.05.04 5.09.02 10.17.04 15.25-1.71.01-3.43.01-5.14.01l.06-5.13-4.7-.03.06 5.17c-1.73-.01-3.46-.01-5.19-.02.04-5.08 0-10.17.05-15.26z" id="g"/><path d="M210.54 8.27c4.63-.19 9.28.07 13.92-.11.02 1.7.03 3.4.05 5.1-1.45-.01-2.89-.01-4.34-.02.02 3.39.03 6.78.04 10.17h-5.41c.02-3.4.03-6.8.04-10.19-1.43.03-2.85.06-4.27.1-.06-1.7-.12-3.35-.03-5.05z" id="h"/><path d="M226.68 8.19c1.77.01 3.55.01 5.32 0 1.03 1.7 2.05 3.4 3.09 5.1 1.09-1.67 2.16-3.36 3.24-5.05 1.79-.02 3.58-.05 5.37-.07.01 5.09 0 10.18.02 15.27-1.73-.01-3.45-.01-5.18-.02.02-2.45.05-4.89.03-7.34-1.19 1.72-2.34 3.47-3.51 5.21-1.12-1.74-2.23-3.48-3.4-5.19-.01 2.44.01 4.89.03 7.33h-5.05c.02-5.08.02-10.16.04-15.24z" id="i"/><path d="M246.26 8.29c1.66-.12 3.35-.1 5.01-.12.02 3.38.01 6.76-.01 10.14 2.38-.01 4.76-.03 7.13-.05 0 1.73-.01 3.45-.02 5.17-4.07-.01-8.14-.01-12.21-.02.13-5.04-.12-10.09.1-15.12z" id="j"/><path d="M106.93 30.59c-.17 2.2.08 4.19-1.2 6.12-3.83 6.44-7.5 12.99-11.39 19.4 3.07 1.36 5.97 2.72 8.17 5.37 4.88 5.59 5.88 13.65 4.75 20.75-1.14 6.53-5.03 13.08-11.39 15.65-5.34 1.89-11.77 1.24-16.1-2.63-3.3-2.72-5.14-6.33-6.7-10.24 2.31-.93 4.61-1.89 6.91-2.85 1.26 2.4 2.3 4.65 4.48 6.39 2.7 2.17 6.74 2.85 9.5.38 3.4-3.14 4.62-8.47 4.42-12.93-.23-4.09-1.27-8.13-4.8-10.6-3.37-2.31-7.04-1.8-10.92-1.95.14-2.03-.02-3.88 1.13-5.67 3.63-6.29 7.35-12.53 10.91-18.86-4.84.28-9.67.16-14.51.22-.71 1.95-1.4 3.91-1.99 5.9-4.71 16-9.51 31.97-14.2 47.97-.7 2.05-.9 4.75-2.55 6.23-4.17-14.09-8.46-28.15-12.59-42.25-1.42 3.18-2.23 6.5-3.22 9.82-3.28 10.82-6.44 21.68-9.75 32.49-1.7-2.31-2.17-5.52-3.05-8.27L14.9 30.58c3.01-.08 6.02-.03 9.03.11 3.75 13.85 8.16 27.53 11.98 41.36 3.12-9.21 5.56-18.68 8.43-27.98-1.43-4.49-2.76-9-4.09-13.52 2.96 0 5.91.01 8.87.02 4.03 13.6 8 27.24 12.04 40.84.5-.93.94-1.88 1.32-2.86 3.7-12.69 7.4-25.4 11.22-38.06 11.06-.08 22.15.15 33.23.1z" id="k"/><path d="M141.94 30.51l.2-.37c.38 2.91 1.05 5.81 1.23 8.74-1.26 3.37-3.34 6.49-4.99 9.7-2.47-4.41-6.54-9.28-12.22-8.14-5.39 1.15-8.99 7.41-10.27 12.36-1.94 5.47-1.42 10.8-1.53 16.46-3.11-7.88-3.29-16.66-.93-24.77 1.46-4.61 3.85-9.31 8.11-11.92 2.75-1.71 6.18-1.5 8.9.16 3.13 1.75 4.84 4.52 6.66 7.49 1.56-3.26 3.16-6.51 4.84-9.71z" id="l"/><path d="M186.43 30.08c26.35.23 52.72.17 79.07.04-2.21 27.03-4.7 54.09-7.21 81.09-10.76 3.11-21.65 5.81-32.34 9.16-10.63-3.29-21.54-5.88-32.15-9.17-.96-2.54-.81-5.67-1.12-8.38-2.01-23.9-4.48-47.97-6.24-71.87l-.01-.87zM226 36.96c-.1 2.68-.1 5.34 0 8.02 8.35.56 16.72-.32 25.03.5-8.39 1.43-16.83-.37-25.31 1.07-8.25.31-16.53.02-24.79.13.95 10.04 1.82 20.1 2.7 30.14 7.43.01 14.85 0 22.27 0 .12 5.32-.52 10.37.83 15.61-.9-.08-1.8-.19-2.7-.33-2.87-.9-6.61-1.37-9.13-2.91-.48-2.46-.49-5.03-.69-7.53-3.38-.01-6.76-.01-10.14 0 .46 5.25.96 10.49 1.43 15.73 5.75 1.6 11.5 3.19 17.25 4.8.95.25 1.9.48 2.86.71.22 3.38.39 6.77.47 10.17 8.72-1.94 17.38-4.58 25.94-7.1.9-5.33 1.07-10.69 1.6-16.06 1.28-13.94 2.46-27.89 3.77-41.83.41-3.71.69-7.42.73-11.16-10.66-.24-21.46-.3-32.12.04z" id="m"/><path d="M226 36.96c10.66-.34 21.46-.28 32.12-.04-.04 3.74-.32 7.45-.73 11.16-1.31 13.94-2.49 27.89-3.77 41.83-.53 5.37-.7 10.73-1.6 16.06-8.56 2.52-17.22 5.16-25.94 7.1-.08-3.4-.25-6.79-.47-10.17 6.98-1.46 13.82-3.73 20.71-5.58.75-10.19 1.85-20.35 2.63-30.54-7.69-.02-15.39 0-23.08-.01.12-3.36.09-6.7-.13-10.06 8.03-.01 16.07-.03 24.1.02.4-3.34.68-6.69.93-10.05-8.35-.09-16.7.15-25.05-.13 8.48-1.44 16.92.36 25.31-1.07-8.31-.82-16.68.06-25.03-.5-.1-2.68-.1-5.34 0-8.02z" id="n"/><path d="M200.93 46.68c8.26-.11 16.54.18 24.79-.13-.02 3.4-.09 6.77.02 10.16-4.6 0-9.19 0-13.79.01.3 3.37.6 6.73.91 10.1 4.34-.06 8.68-.06 13.01-.05-.12 3.36-.11 6.7.03 10.05-7.42 0-14.84.01-22.27 0-.88-10.04-1.75-20.1-2.7-30.14z" id="o"/><path d="M225.72 46.55c8.35.28 16.7.04 25.05.13-.25 3.36-.53 6.71-.93 10.05-8.03-.05-16.07-.03-24.1-.02-.11-3.39-.04-6.76-.02-10.16z" id="p"/><path d="M362.07 47.24c4.84 4.79 9.54 9.75 14.55 14.36-2.44 1.94-4.57 4.18-6.73 6.41-6.52 5.73-12.6 12.25-18.43 18.64l-.39.41c-1.48 1.48-2.97 2.95-4.44 4.43-9.11 9.03-18.09 18.19-27.27 27.13-10.96-10.12-22.08-20.09-33-30.25 4.71-4.93 9.25-10.03 13.86-15.05 6.23 5.64 12.4 11.35 18.63 16.98 10.69-10.75 21.44-21.55 32.2-32.22l1.33-1.15c1.38-1.26 2.69-2.62 4-3.94 1.91-1.9 3.81-3.82 5.69-5.75z" id="q"/><path d="M211.95 56.72c4.6-.01 9.19-.01 13.79-.01.22 3.36.25 6.7.13 10.06-4.33-.01-8.67-.01-13.01.05-.31-3.37-.61-6.73-.91-10.1z" id="r"/><path d="M225.87 66.77c7.69.01 15.39-.01 23.08.01-.78 10.19-1.88 20.35-2.63 30.54-6.89 1.85-13.73 4.12-20.71 5.58-.96-.23-1.91-.46-2.86-.71 1-.51 2.01-1.01 3.01-1.52.26-3.43.2-5.64-1.73-8.57.9.14 1.8.25 2.7.33 3.37-.96 6.73-1.94 10.13-2.8.51-4.26.79-8.54 1.09-12.81-4.02-.01-8.03 0-12.05 0-.14-3.35-.15-6.69-.03-10.05z" id="s"/><path d="M369.89 68.01c-4 4.28-8.26 8.29-12.35 12.46-1.47 1.26-1.1 2.77-1.22 4.51.1 14.48-.04 28.97.08 43.45-1.27.25-3.34-.37-4.01 1-.12 1.18-.09 2.39-.1 3.57H4.4c-.05-1.46-.09-2.92-.11-4.39 4.57-.14 9.14-.28 13.71-.23 42.33.02 84.67 0 127 .01 4.24 0 8.45-.08 12.69.13 4.77.26 9.53.15 14.31.16 58.29.02 116.59-.03 174.88.02 1.71.03 3.43.07 5.14.12l-.03-.51.03-3.56c.56-10.56.06-21.18.28-31.75-.05-2.23.32-4.35-.84-6.35 5.83-6.39 11.91-12.91 18.43-18.64z" id="t"/><path d="M225.9 76.82c4.02 0 8.03-.01 12.05 0-.3 4.27-.58 8.55-1.09 12.81-3.4.86-6.76 1.84-10.13 2.8-1.35-5.24-.71-10.29-.83-15.61z" id="u"/><path d="M109.08 78.93c2.11 3.31 3.75 6.61 6.86 9.16 3.98 3.57 9.42 5.31 14.59 3.3 6.02-2.17 8.68-6.73 12.41-11.45.16 2.43 1.68 6 .12 8.1-2.06 3.44-4.93 6.56-8.33 8.7-5.28 3.15-12.05 2.13-16.51-1.97-4.37-3.99-7.91-10.04-9.14-15.84z" id="v"/><path d="M204.07 81.66c3.38-.01 6.76-.01 10.14 0 .2 2.5.21 5.07.69 7.53 2.52 1.54 6.26 2.01 9.13 2.91 1.93 2.93 1.99 5.14 1.73 8.57-1 .51-2.01 1.01-3.01 1.52-5.75-1.61-11.5-3.2-17.25-4.8-.47-5.24-.97-10.48-1.43-15.73z" id="w"/><path d="M351.46 86.65c1.16 2 .79 4.12.84 6.35-.22 10.57.28 21.19-.28 31.75-.74-1.93-1.14-3.67-1.05-5.75.17-10.64-.05-21.3.1-31.94l.39-.41z" id="x"/><path d="M351.07 87.06c-.15 10.64.07 21.3-.1 31.94-.09 2.08.31 3.82 1.05 5.75l-.03 3.56c-.43-1.34-.91-2.66-1.43-3.97-1.08-.06-2.17-.1-3.25-.13-.14 1.5-.29 2.99-.43 4.49-58.29-.05-116.59 0-174.88-.02-4.78-.01-9.54.1-14.31-.16l.1-.86.42-3.47c56.6.04 113.19 0 169.79.02 6.33-.04 12.64.11 18.97-.1.07-8.36-.16-16.74.05-25.11.07-2.52-.09-5.01-.39-7.51 1.47-1.48 2.96-2.95 4.44-4.43z" id="y"/><path d="M9.12 124.19c49.7-.03 99.4-.02 149.09 0l-.42 3.47c-4.26.16-8.52.15-12.79.13H25c-5.44-.05-10.86.15-16.3-.15l.42-3.45z" id="z"/><path d="M350.56 124.34c.52 1.31 1 2.63 1.43 3.97l.03.51c-1.71-.05-3.43-.09-5.14-.12.14-1.5.29-2.99.43-4.49 1.08.03 2.17.07 3.25.13z" id="A"/><path d="M356.4 128.43l.06 4.57h-4.17c.01-1.18-.02-2.39.1-3.57.67-1.37 2.74-.75 4.01-1z" id="B"/></defs><g stroke-width="10pt"><use stroke="#cccccd" xlink:href="#a"/><use stroke="#fff" xlink:href="#b"/><use stroke="#fff" xlink:href="#c"/><use stroke="#fc6" xlink:href="#d"/><use stroke="#b09d67" xlink:href="#e"/><use stroke="#46453d" xlink:href="#f"/><use stroke="#000" xlink:href="#g"/><use stroke="#000" xlink:href="#h"/><use stroke="#000" xlink:href="#i"/><use stroke="#000" xlink:href="#j"/><use stroke="#005a9c" xlink:href="#k"/><use stroke="#000" xlink:href="#l"/><use stroke="#e44d26" xlink:href="#m"/><use stroke="#f16529" xlink:href="#n"/><use stroke="#ebebeb" xlink:href="#o"/><use stroke="#fff" xlink:href="#p"/><use stroke="#094906" xlink:href="#q"/><use stroke="#e44c25" xlink:href="#r"/><use stroke="#fff" xlink:href="#s"/><use stroke="#4e4d47" xlink:href="#t"/><use stroke="#f16529" xlink:href="#u"/><use stroke="#000" xlink:href="#v"/><use stroke="#ebebeb" xlink:href="#w"/><use stroke="#e8c06a" xlink:href="#x"/><use stroke="#b39f67" xlink:href="#y"/><use stroke="#afafae" xlink:href="#z"/><use stroke="#83785a" xlink:href="#A"/><use stroke="#191918" xlink:href="#B"/></g><use fill="#cccccd" xlink:href="#a"/><use fill="#fff" xlink:href="#b"/><use fill="#fff" xlink:href="#c"/><use fill="#fc6" xlink:href="#d"/><use fill="#b09d67" xlink:href="#e"/><use fill="#46453d" xlink:href="#f"/><use xlink:href="#g"/><use xlink:href="#h"/><use xlink:href="#i"/><use xlink:href="#j"/><use fill="#005a9c" xlink:href="#k"/><use xlink:href="#l"/><use fill="#e44d26" xlink:href="#m"/><use fill="#f16529" xlink:href="#n"/><use fill="#ebebeb" xlink:href="#o"/><use fill="#fff" xlink:href="#p"/><use fill="#094906" xlink:href="#q"/><use fill="#e44c25" xlink:href="#r"/><use fill="#fff" xlink:href="#s"/><use fill="#4e4d47" xlink:href="#t"/><use fill="#f16529" xlink:href="#u"/><use xlink:href="#v"/><use fill="#ebebeb" xlink:href="#w"/><use fill="#e8c06a" xlink:href="#x"/><use fill="#b39f67" xlink:href="#y"/><use fill="#afafae" xlink:href="#z"/><use fill="#83785a" xlink:href="#A"/><use fill="#191918" xlink:href="#B"/></svg>