<?xml version="1.0" encoding="UTF-8" standalone="no"?>
<!DOCTYPE svg PUBLIC "-//W3C//DTD SVG 1.1//EN" "http://www.w3.org/Graphics/SVG/1.1/DTD/svg11.dtd">
<svg xmlns="http://www.w3.org/2000/svg" version="1.1" viewBox="0 0 378 133" width="378.0pt" height="133.0pt" xmlns:xlink="http://www.w3.org/1999/xlink">
<defs>
<path d="M 0.00 0.00 L 355.96 0.00 C 356.06 1.43 356.15 2.86 356.23 4.29 C 354.93 4.31 353.64 4.34 352.34 4.37 C 350.58 4.38 348.82 4.36 347.05 4.35 C 284.09 4.27 221.11 4.34 158.14 4.31 C 106.95 4.34 55.57 4.23 4.40 4.36 C 4.20 45.73 4.43 87.23 4.29 128.61 C 4.31 130.08 4.35 131.54 4.40 133.00 L 0.00 133.00 L 0.00 0.00 Z" id="p0" />
<path d="M 355.96 0.00 L 378.00 0.00 L 378.00 133.00 L 356.46 133.00 C 356.44 131.48 356.42 129.95 356.40 128.43 C 356.28 113.95 356.42 99.46 356.32 84.98 C 356.44 83.24 356.07 81.73 357.54 80.47 C 361.63 76.30 365.89 72.29 369.89 68.01 C 372.05 65.78 374.18 63.54 376.62 61.60 C 371.61 56.99 366.91 52.03 362.07 47.24 C 360.19 49.17 358.29 51.09 356.38 52.99 C 356.20 36.76 356.51 20.52 356.23 4.29 C 356.15 2.86 356.06 1.43 355.96 0.00 Z" id="p1" />
<path d="M 4.40 4.36 C 55.57 4.23 106.95 4.34 158.14 4.31 C 158.24 44.27 158.10 84.23 158.21 124.19 C 108.52 124.17 58.82 124.16 9.12 124.19 C 8.98 125.34 8.84 126.49 8.70 127.64 C 14.14 127.94 19.56 127.74 25.00 127.79 C 65.00 127.79 105.00 127.79 145.00 127.79 C 149.27 127.81 153.53 127.82 157.79 127.66 L 157.69 128.52 C 153.45 128.31 149.24 128.39 145.00 128.39 C 102.67 128.38 60.33 128.40 18.00 128.38 C 13.43 128.33 8.86 128.47 4.29 128.61 C 4.43 87.23 4.20 45.73 4.40 4.36 Z M 73.70 30.49 C 69.88 43.15 66.18 55.86 62.48 68.55 C 62.10 69.53 61.66 70.48 61.16 71.41 C 57.12 57.81 53.15 44.17 49.12 30.57 C 46.16 30.56 43.21 30.55 40.25 30.55 C 41.58 35.07 42.91 39.58 44.34 44.07 C 41.47 53.37 39.03 62.84 35.91 72.05 C 32.09 58.22 27.68 44.54 23.93 30.69 C 20.92 30.55 17.91 30.50 14.90 30.58 C 20.88 50.73 26.86 70.88 32.84 91.03 C 33.72 93.78 34.19 96.99 35.89 99.30 C 39.20 88.49 42.36 77.63 45.64 66.81 C 46.63 63.49 47.44 60.17 48.86 56.99 C 52.99 71.09 57.28 85.15 61.45 99.24 C 63.10 97.76 63.30 95.06 64.00 93.01 C 68.69 77.01 73.49 61.04 78.20 45.04 C 78.79 43.05 79.48 41.09 80.19 39.14 C 85.03 39.08 89.86 39.20 94.70 38.92 C 91.14 45.25 87.42 51.49 83.79 57.78 C 82.64 59.57 82.80 61.42 82.66 63.45 C 86.54 63.60 90.21 63.09 93.58 65.40 C 97.11 67.87 98.15 71.91 98.38 76.00 C 98.58 80.46 97.36 85.79 93.96 88.93 C 91.20 91.40 87.16 90.72 84.46 88.55 C 82.28 86.81 81.24 84.56 79.98 82.16 C 77.68 83.12 75.38 84.08 73.07 85.01 C 74.63 88.92 76.47 92.53 79.77 95.25 C 84.10 99.12 90.53 99.77 95.87 97.88 C 102.23 95.31 106.12 88.76 107.26 82.23 C 108.39 75.13 107.39 67.07 102.51 61.48 C 100.31 58.83 97.41 57.47 94.34 56.11 C 98.23 49.70 101.90 43.15 105.73 36.71 C 107.01 34.78 106.76 32.79 106.93 30.59 C 95.85 30.64 84.76 30.41 73.70 30.49 Z M 137.10 40.22 C 135.28 37.25 133.57 34.48 130.44 32.73 C 127.72 31.07 124.29 30.86 121.54 32.57 C 117.28 35.18 114.89 39.88 113.43 44.49 C 111.07 52.60 111.25 61.38 114.36 69.26 C 114.47 63.60 113.95 58.27 115.89 52.80 C 117.17 47.85 120.77 41.59 126.16 40.44 C 131.84 39.30 135.91 44.17 138.38 48.58 C 140.03 45.37 142.11 42.25 143.37 38.88 C 143.19 35.95 142.52 33.05 142.14 30.14 L 141.94 30.51 C 140.26 33.71 138.66 36.96 137.10 40.22 Z M 142.94 79.94 C 139.21 84.66 136.55 89.22 130.53 91.39 C 125.36 93.40 119.92 91.66 115.94 88.09 C 112.83 85.54 111.19 82.24 109.08 78.93 C 110.31 84.73 113.85 90.78 118.22 94.77 C 122.68 98.87 129.45 99.89 134.73 96.74 C 138.13 94.60 141.00 91.48 143.06 88.04 C 144.62 85.94 143.10 82.37 142.94 79.94 Z" id="p2" />
<path d="M 158.14 4.31 C 221.11 4.34 284.09 4.27 347.05 4.35 C 347.14 22.98 346.98 41.63 347.10 60.26 C 348.42 59.55 349.75 58.85 351.05 58.08 C 340.29 68.75 329.54 79.55 318.85 90.30 C 312.62 84.67 306.45 78.96 300.22 73.32 C 295.61 78.34 291.07 83.44 286.36 88.37 C 297.28 98.53 308.40 108.50 319.36 118.62 C 328.54 109.68 337.52 100.52 346.63 91.49 C 346.93 93.99 347.09 96.48 347.02 99.00 C 346.81 107.37 347.04 115.75 346.97 124.11 C 340.64 124.32 334.33 124.17 328.00 124.21 C 271.40 124.19 214.81 124.23 158.21 124.19 C 158.10 84.23 158.24 44.27 158.14 4.31 Z M 193.57 8.16 C 193.52 13.25 193.56 18.34 193.52 23.42 C 195.25 23.43 196.98 23.43 198.71 23.44 C 198.69 21.72 198.67 19.99 198.65 18.27 C 200.22 18.28 201.79 18.29 203.35 18.30 C 203.33 20.01 203.31 21.72 203.29 23.43 C 205.00 23.43 206.72 23.43 208.43 23.42 C 208.41 18.34 208.43 13.26 208.39 8.17 C 206.70 8.19 205.01 8.21 203.31 8.22 C 203.31 9.87 203.31 11.52 203.31 13.17 C 201.77 13.17 200.24 13.17 198.70 13.17 C 198.69 11.51 198.69 9.86 198.68 8.20 C 196.98 8.19 195.27 8.18 193.57 8.16 Z M 210.57 13.32 C 211.99 13.28 213.41 13.25 214.84 13.22 C 214.83 16.61 214.82 20.01 214.80 23.41 C 216.60 23.41 218.41 23.41 220.21 23.41 C 220.20 20.02 220.19 16.63 220.17 13.24 C 221.62 13.25 223.06 13.25 224.51 13.26 C 224.49 11.56 224.48 9.86 224.46 8.16 C 219.82 8.34 215.17 8.08 210.54 8.27 C 210.45 9.97 210.51 11.62 210.57 13.32 Z M 226.68 8.19 C 226.66 13.27 226.66 18.35 226.64 23.43 C 228.33 23.43 230.01 23.43 231.69 23.43 C 231.67 20.99 231.65 18.54 231.66 16.10 C 232.83 17.81 233.94 19.55 235.06 21.29 C 236.23 19.55 237.38 17.80 238.57 16.08 C 238.59 18.53 238.56 20.97 238.54 23.42 C 240.27 23.43 241.99 23.43 243.72 23.44 C 243.70 18.35 243.71 13.26 243.70 8.17 C 241.91 8.19 240.12 8.22 238.33 8.24 C 237.25 9.93 236.18 11.62 235.09 13.29 C 234.05 11.59 233.03 9.89 232.00 8.19 C 230.23 8.20 228.45 8.20 226.68 8.19 Z M 246.16 23.41 C 250.23 23.42 254.30 23.42 258.37 23.43 C 258.38 21.71 258.39 19.99 258.39 18.26 C 256.02 18.28 253.64 18.30 251.26 18.31 C 251.28 14.93 251.29 11.55 251.27 8.17 C 249.61 8.19 247.92 8.17 246.26 8.29 C 246.04 13.32 246.29 18.37 246.16 23.41 Z M 186.43 30.08 L 186.44 30.95 C 188.20 54.85 190.67 78.92 192.68 102.82 C 192.99 105.53 192.84 108.66 193.80 111.20 C 204.41 114.49 215.32 117.08 225.95 120.37 C 236.64 117.02 247.53 114.32 258.29 111.21 C 260.80 84.21 263.29 57.15 265.50 30.12 C 239.15 30.25 212.78 30.31 186.43 30.08 Z" id="p3" />
<path d="M 347.05 4.35 C 348.82 4.36 350.58 4.38 352.34 4.37 C 352.52 21.88 352.47 39.41 352.38 56.93 L 351.05 58.08 C 349.75 58.85 348.42 59.55 347.10 60.26 C 346.98 41.63 347.14 22.98 347.05 4.35 Z" id="p4" />
<path d="M 352.34 4.37 C 353.64 4.34 354.93 4.31 356.23 4.29 C 356.51 20.52 356.20 36.76 356.38 52.99 C 355.07 54.31 353.76 55.67 352.38 56.93 C 352.47 39.41 352.52 21.88 352.34 4.37 Z" id="p5" />
<path d="M 193.57 8.16 C 195.27 8.18 196.98 8.19 198.68 8.20 C 198.69 9.86 198.69 11.51 198.70 13.17 C 200.24 13.17 201.77 13.17 203.31 13.17 C 203.31 11.52 203.31 9.87 203.31 8.22 C 205.01 8.21 206.70 8.19 208.39 8.17 C 208.43 13.26 208.41 18.34 208.43 23.42 C 206.72 23.43 205.00 23.43 203.29 23.43 C 203.31 21.72 203.33 20.01 203.35 18.30 C 201.79 18.29 200.22 18.28 198.65 18.27 C 198.67 19.99 198.69 21.72 198.71 23.44 C 196.98 23.43 195.25 23.43 193.52 23.42 C 193.56 18.34 193.52 13.25 193.57 8.16 Z" id="p6" />
<path d="M 210.54 8.27 C 215.17 8.08 219.82 8.34 224.46 8.16 C 224.48 9.86 224.49 11.56 224.51 13.26 C 223.06 13.25 221.62 13.25 220.17 13.24 C 220.19 16.63 220.20 20.02 220.21 23.41 C 218.41 23.41 216.60 23.41 214.80 23.41 C 214.82 20.01 214.83 16.61 214.84 13.22 C 213.41 13.25 211.99 13.28 210.57 13.32 C 210.51 11.62 210.45 9.97 210.54 8.27 Z" id="p7" />
<path d="M 226.68 8.19 C 228.45 8.20 230.23 8.20 232.00 8.19 C 233.03 9.89 234.05 11.59 235.09 13.29 C 236.18 11.62 237.25 9.93 238.33 8.24 C 240.12 8.22 241.91 8.19 243.70 8.17 C 243.71 13.26 243.70 18.35 243.72 23.44 C 241.99 23.43 240.27 23.43 238.54 23.42 C 238.56 20.97 238.59 18.53 238.57 16.08 C 237.38 17.80 236.23 19.55 235.06 21.29 C 233.94 19.55 232.83 17.81 231.66 16.10 C 231.65 18.54 231.67 20.99 231.69 23.43 C 230.01 23.43 228.33 23.43 226.64 23.43 C 226.66 18.35 226.66 13.27 226.68 8.19 Z" id="p8" />
<path d="M 246.26 8.29 C 247.92 8.17 249.61 8.19 251.27 8.17 C 251.29 11.55 251.28 14.93 251.26 18.31 C 253.64 18.30 256.02 18.28 258.39 18.26 C 258.39 19.99 258.38 21.71 258.37 23.43 C 254.30 23.42 250.23 23.42 246.16 23.41 C 246.29 18.37 246.04 13.32 246.26 8.29 Z" id="p9" />
<path d="M 106.93 30.59 C 106.76 32.79 107.01 34.78 105.73 36.71 C 101.90 43.15 98.23 49.70 94.34 56.11 C 97.41 57.47 100.31 58.83 102.51 61.48 C 107.39 67.07 108.39 75.13 107.26 82.23 C 106.12 88.76 102.23 95.31 95.87 97.88 C 90.53 99.77 84.10 99.12 79.77 95.25 C 76.47 92.53 74.63 88.92 73.07 85.01 C 75.38 84.08 77.68 83.12 79.98 82.16 C 81.24 84.56 82.28 86.81 84.46 88.55 C 87.16 90.72 91.20 91.40 93.96 88.93 C 97.36 85.79 98.58 80.46 98.38 76.00 C 98.15 71.91 97.11 67.87 93.58 65.40 C 90.21 63.09 86.54 63.60 82.66 63.45 C 82.80 61.42 82.64 59.57 83.79 57.78 C 87.42 51.49 91.14 45.25 94.70 38.92 C 89.86 39.20 85.03 39.08 80.19 39.14 C 79.48 41.09 78.79 43.05 78.20 45.04 C 73.49 61.04 68.69 77.01 64.00 93.01 C 63.30 95.06 63.10 97.76 61.45 99.24 C 57.28 85.15 52.99 71.09 48.86 56.99 C 47.44 60.17 46.63 63.49 45.64 66.81 C 42.36 77.63 39.20 88.49 35.89 99.30 C 34.19 96.99 33.72 93.78 32.84 91.03 C 26.86 70.88 20.88 50.73 14.90 30.58 C 17.91 30.50 20.92 30.55 23.93 30.69 C 27.68 44.54 32.09 58.22 35.91 72.05 C 39.03 62.84 41.47 53.37 44.34 44.07 C 42.91 39.58 41.58 35.07 40.25 30.55 C 43.21 30.55 46.16 30.56 49.12 30.57 C 53.15 44.17 57.12 57.81 61.16 71.41 C 61.66 70.48 62.10 69.53 62.48 68.55 C 66.18 55.86 69.88 43.15 73.70 30.49 C 84.76 30.41 95.85 30.64 106.93 30.59 Z" id="p10" />
<path d="M 141.94 30.51 L 142.14 30.14 C 142.52 33.05 143.19 35.95 143.37 38.88 C 142.11 42.25 140.03 45.37 138.38 48.58 C 135.91 44.17 131.84 39.30 126.16 40.44 C 120.77 41.59 117.17 47.85 115.89 52.80 C 113.95 58.27 114.47 63.60 114.36 69.26 C 111.25 61.38 111.07 52.60 113.43 44.49 C 114.89 39.88 117.28 35.18 121.54 32.57 C 124.29 30.86 127.72 31.07 130.44 32.73 C 133.57 34.48 135.28 37.25 137.10 40.22 C 138.66 36.96 140.26 33.71 141.94 30.51 Z" id="p11" />
<path d="M 186.43 30.08 C 212.78 30.31 239.15 30.25 265.50 30.12 C 263.29 57.15 260.80 84.21 258.29 111.21 C 247.53 114.32 236.64 117.02 225.95 120.37 C 215.32 117.08 204.41 114.49 193.80 111.20 C 192.84 108.66 192.99 105.53 192.68 102.82 C 190.67 78.92 188.20 54.85 186.44 30.95 L 186.43 30.08 Z M 226.00 36.96 C 225.90 39.64 225.90 42.30 226.00 44.98 C 234.35 45.54 242.72 44.66 251.03 45.48 C 242.64 46.91 234.20 45.11 225.72 46.55 C 217.47 46.86 209.19 46.57 200.93 46.68 C 201.88 56.72 202.75 66.78 203.63 76.82 C 211.06 76.83 218.48 76.82 225.90 76.82 C 226.02 82.14 225.38 87.19 226.73 92.43 C 225.83 92.35 224.93 92.24 224.03 92.10 C 221.16 91.20 217.42 90.73 214.90 89.19 C 214.42 86.73 214.41 84.16 214.21 81.66 C 210.83 81.65 207.45 81.65 204.07 81.66 C 204.53 86.91 205.03 92.15 205.50 97.39 C 211.25 98.99 217.00 100.58 222.75 102.19 C 223.70 102.44 224.65 102.67 225.61 102.90 C 225.83 106.28 226.00 109.67 226.08 113.07 C 234.80 111.13 243.46 108.49 252.02 105.97 C 252.92 100.64 253.09 95.28 253.62 89.91 C 254.90 75.97 256.08 62.02 257.39 48.08 C 257.80 44.37 258.08 40.66 258.12 36.92 C 247.46 36.68 236.66 36.62 226.00 36.96 Z" id="p12" />
<path d="M 226.00 36.96 C 236.66 36.62 247.46 36.68 258.12 36.92 C 258.08 40.66 257.80 44.37 257.39 48.08 C 256.08 62.02 254.90 75.97 253.62 89.91 C 253.09 95.28 252.92 100.64 252.02 105.97 C 243.46 108.49 234.80 111.13 226.08 113.07 C 226.00 109.67 225.83 106.28 225.61 102.90 C 232.59 101.44 239.43 99.17 246.32 97.32 C 247.07 87.13 248.17 76.97 248.95 66.78 C 241.26 66.76 233.56 66.78 225.87 66.77 C 225.99 63.41 225.96 60.07 225.74 56.71 C 233.77 56.70 241.81 56.68 249.84 56.73 C 250.24 53.39 250.52 50.04 250.77 46.68 C 242.42 46.59 234.07 46.83 225.72 46.55 C 234.20 45.11 242.64 46.91 251.03 45.48 C 242.72 44.66 234.35 45.54 226.00 44.98 C 225.90 42.30 225.90 39.64 226.00 36.96 Z" id="p13" />
<path d="M 200.93 46.68 C 209.19 46.57 217.47 46.86 225.72 46.55 C 225.70 49.95 225.63 53.32 225.74 56.71 C 221.14 56.71 216.55 56.71 211.95 56.72 C 212.25 60.09 212.55 63.45 212.86 66.82 C 217.20 66.76 221.54 66.76 225.87 66.77 C 225.75 70.13 225.76 73.47 225.90 76.82 C 218.48 76.82 211.06 76.83 203.63 76.82 C 202.75 66.78 201.88 56.72 200.93 46.68 Z" id="p14" />
<path d="M 225.72 46.55 C 234.07 46.83 242.42 46.59 250.77 46.68 C 250.52 50.04 250.24 53.39 249.84 56.73 C 241.81 56.68 233.77 56.70 225.74 56.71 C 225.63 53.32 225.70 49.95 225.72 46.55 Z" id="p15" />
<path d="M 362.07 47.24 C 366.91 52.03 371.61 56.99 376.62 61.60 C 374.18 63.54 372.05 65.78 369.89 68.01 C 363.37 73.74 357.29 80.26 351.46 86.65 L 351.07 87.06 C 349.59 88.54 348.10 90.01 346.63 91.49 C 337.52 100.52 328.54 109.68 319.36 118.62 C 308.40 108.50 297.28 98.53 286.36 88.37 C 291.07 83.44 295.61 78.34 300.22 73.32 C 306.45 78.96 312.62 84.67 318.85 90.30 C 329.54 79.55 340.29 68.75 351.05 58.08 L 352.38 56.93 C 353.76 55.67 355.07 54.31 356.38 52.99 C 358.29 51.09 360.19 49.17 362.07 47.24 Z" id="p16" />
<path d="M 211.95 56.72 C 216.55 56.71 221.14 56.71 225.74 56.71 C 225.96 60.07 225.99 63.41 225.87 66.77 C 221.54 66.76 217.20 66.76 212.86 66.82 C 212.55 63.45 212.25 60.09 211.95 56.72 Z" id="p17" />
<path d="M 225.87 66.77 C 233.56 66.78 241.26 66.76 248.95 66.78 C 248.17 76.97 247.07 87.13 246.32 97.32 C 239.43 99.17 232.59 101.44 225.61 102.90 C 224.65 102.67 223.70 102.44 222.75 102.19 C 223.75 101.68 224.76 101.18 225.76 100.67 C 226.02 97.24 225.96 95.03 224.03 92.10 C 224.93 92.24 225.83 92.35 226.73 92.43 C 230.10 91.47 233.46 90.49 236.86 89.63 C 237.37 85.37 237.65 81.09 237.95 76.82 C 233.93 76.81 229.92 76.82 225.90 76.82 C 225.76 73.47 225.75 70.13 225.87 66.77 Z" id="p18" />
<path d="M 369.89 68.01 C 365.89 72.29 361.63 76.30 357.54 80.47 C 356.07 81.73 356.44 83.24 356.32 84.98 C 356.42 99.46 356.28 113.95 356.40 128.43 C 355.13 128.68 353.06 128.06 352.39 129.43 C 352.27 130.61 352.30 131.82 352.29 133.00 L 4.40 133.00 C 4.35 131.54 4.31 130.08 4.29 128.61 C 8.86 128.47 13.43 128.33 18.00 128.38 C 60.33 128.40 102.67 128.38 145.00 128.39 C 149.24 128.39 153.45 128.31 157.69 128.52 C 162.46 128.78 167.22 128.67 172.00 128.68 C 230.29 128.70 288.59 128.65 346.88 128.70 C 348.59 128.73 350.31 128.77 352.02 128.82 L 351.99 128.31 C 352.00 127.13 352.01 125.94 352.02 124.75 C 352.58 114.19 352.08 103.57 352.30 93.00 C 352.25 90.77 352.62 88.65 351.46 86.65 C 357.29 80.26 363.37 73.74 369.89 68.01 Z" id="p19" />
<path d="M 225.90 76.82 C 229.92 76.82 233.93 76.81 237.95 76.82 C 237.65 81.09 237.37 85.37 236.86 89.63 C 233.46 90.49 230.10 91.47 226.73 92.43 C 225.38 87.19 226.02 82.14 225.90 76.82 Z" id="p20" />
<path d="M 109.08 78.93 C 111.19 82.24 112.83 85.54 115.94 88.09 C 119.92 91.66 125.36 93.40 130.53 91.39 C 136.55 89.22 139.21 84.66 142.94 79.94 C 143.10 82.37 144.62 85.94 143.06 88.04 C 141.00 91.48 138.13 94.60 134.73 96.74 C 129.45 99.89 122.68 98.87 118.22 94.77 C 113.85 90.78 110.31 84.73 109.08 78.93 Z" id="p21" />
<path d="M 204.07 81.66 C 207.45 81.65 210.83 81.65 214.21 81.66 C 214.41 84.16 214.42 86.73 214.90 89.19 C 217.42 90.73 221.16 91.20 224.03 92.10 C 225.96 95.03 226.02 97.24 225.76 100.67 C 224.76 101.18 223.75 101.68 222.75 102.19 C 217.00 100.58 211.25 98.99 205.50 97.39 C 205.03 92.15 204.53 86.91 204.07 81.66 Z" id="p22" />
<path d="M 351.46 86.65 C 352.62 88.65 352.25 90.77 352.30 93.00 C 352.08 103.57 352.58 114.19 352.02 124.75 C 351.28 122.82 350.88 121.08 350.97 119.00 C 351.14 108.36 350.92 97.70 351.07 87.06 L 351.46 86.65 Z" id="p23" />
<path d="M 351.07 87.06 C 350.92 97.70 351.14 108.36 350.97 119.00 C 350.88 121.08 351.28 122.82 352.02 124.75 C 352.01 125.94 352.00 127.13 351.99 128.31 C 351.56 126.97 351.08 125.65 350.56 124.34 C 349.48 124.28 348.39 124.24 347.31 124.21 C 347.17 125.71 347.02 127.20 346.88 128.70 C 288.59 128.65 230.29 128.70 172.00 128.68 C 167.22 128.67 162.46 128.78 157.69 128.52 L 157.79 127.66 C 157.93 126.50 158.07 125.35 158.21 124.19 C 214.81 124.23 271.40 124.19 328.00 124.21 C 334.33 124.17 340.64 124.32 346.97 124.11 C 347.04 115.75 346.81 107.37 347.02 99.00 C 347.09 96.48 346.93 93.99 346.63 91.49 C 348.10 90.01 349.59 88.54 351.07 87.06 Z" id="p24" />
<path d="M 9.12 124.19 C 58.82 124.16 108.52 124.17 158.21 124.19 C 158.07 125.35 157.93 126.50 157.79 127.66 C 153.53 127.82 149.27 127.81 145.00 127.79 C 105.00 127.79 65.00 127.79 25.00 127.79 C 19.56 127.74 14.14 127.94 8.70 127.64 C 8.84 126.49 8.98 125.34 9.12 124.19 Z" id="p25" />
<path d="M 350.56 124.34 C 351.08 125.65 351.56 126.97 351.99 128.31 L 352.02 128.82 C 350.31 128.77 348.59 128.73 346.88 128.70 C 347.02 127.20 347.17 125.71 347.31 124.21 C 348.39 124.24 349.48 124.28 350.56 124.34 Z" id="p26" />
<path d="M 356.40 128.43 C 356.42 129.95 356.44 131.48 356.46 133.00 L 352.29 133.00 C 352.30 131.82 352.27 130.61 352.39 129.43 C 353.06 128.06 355.13 128.68 356.40 128.43 Z" id="p27" />
</defs>
<g stroke-width="10pt">
<use stroke="#cccccd" xlink:href="#p0" />
<use stroke="#ffffff" xlink:href="#p1" />
<use stroke="#ffffff" xlink:href="#p2" />
<use stroke="#ffcc66" xlink:href="#p3" />
<use stroke="#b09d67" xlink:href="#p4" />
<use stroke="#46453d" xlink:href="#p5" />
<use stroke="#000000" xlink:href="#p6" />
<use stroke="#000000" xlink:href="#p7" />
<use stroke="#000000" xlink:href="#p8" />
<use stroke="#000000" xlink:href="#p9" />
<use stroke="#005a9c" xlink:href="#p10" />
<use stroke="#000000" xlink:href="#p11" />
<use stroke="#e44d26" xlink:href="#p12" />
<use stroke="#f16529" xlink:href="#p13" />
<use stroke="#ebebeb" xlink:href="#p14" />
<use stroke="#ffffff" xlink:href="#p15" />
<use stroke="#094906" xlink:href="#p16" />
<use stroke="#e44c25" xlink:href="#p17" />
<use stroke="#ffffff" xlink:href="#p18" />
<use stroke="#4e4d47" xlink:href="#p19" />
<use stroke="#f16529" xlink:href="#p20" />
<use stroke="#000000" xlink:href="#p21" />
<use stroke="#ebebeb" xlink:href="#p22" />
<use stroke="#e8c06a" xlink:href="#p23" />
<use stroke="#b39f67" xlink:href="#p24" />
<use stroke="#afafae" xlink:href="#p25" />
<use stroke="#83785a" xlink:href="#p26" />
<use stroke="#191918" xlink:href="#p27" />
</g>
<g>
<use fill="#cccccd" xlink:href="#p0" />
<use fill="#ffffff" xlink:href="#p1" />
<use fill="#ffffff" xlink:href="#p2" />
<use fill="#ffcc66" xlink:href="#p3" />
<use fill="#b09d67" xlink:href="#p4" />
<use fill="#46453d" xlink:href="#p5" />
<use fill="#000000" xlink:href="#p6" />
<use fill="#000000" xlink:href="#p7" />
<use fill="#000000" xlink:href="#p8" />
<use fill="#000000" xlink:href="#p9" />
<use fill="#005a9c" xlink:href="#p10" />
<use fill="#000000" xlink:href="#p11" />
<use fill="#e44d26" xlink:href="#p12" />
<use fill="#f16529" xlink:href="#p13" />
<use fill="#ebebeb" xlink:href="#p14" />
<use fill="#ffffff" xlink:href="#p15" />
<use fill="#094906" xlink:href="#p16" />
<use fill="#e44c25" xlink:href="#p17" />
<use fill="#ffffff" xlink:href="#p18" />
<use fill="#4e4d47" xlink:href="#p19" />
<use fill="#f16529" xlink:href="#p20" />
<use fill="#000000" xlink:href="#p21" />
<use fill="#ebebeb" xlink:href="#p22" />
<use fill="#e8c06a" xlink:href="#p23" />
<use fill="#b39f67" xlink:href="#p24" />
<use fill="#afafae" xlink:href="#p25" />
<use fill="#83785a" xlink:href="#p26" />
<use fill="#191918" xlink:href="#p27" />
</g>
</svg>